<svg id="Layer_1" data-name="Layer 1" xmlns="http://www.w3.org/2000/svg" viewBox="0 0 95 95"><defs><style>.cls-1{fill:#a8009c;}.cls-2{fill:#fff;}</style></defs><title>calendarFeature</title><circle class="cls-1" cx="47.5" cy="47.5" r="47.5"/><path class="cls-2" d="M24.88,39.31V69H69.94V39.31ZM30,43.09H39.6v9.57H30Zm9.57,22H30V55.5H39.6Zm12.9,0H42.93V55.5H52.5Zm0-12.41H42.93V43.09H52.5ZM65.08,65.07H55.51V55.5h9.57Zm0-12.41H55.51V43.09h9.57Z"/><polygon class="cls-2" points="65.21 28.75 65.21 25.08 63.62 25.08 63.62 28.75 60.19 28.75 60.19 25.08 58.6 25.08 58.6 28.75 55.46 28.75 55.46 25.08 53.87 25.08 53.87 28.75 50.65 28.75 50.65 25.08 49.06 25.08 49.06 28.75 45.79 28.75 45.79 25.08 44.2 25.08 44.2 28.75 40.73 28.75 40.73 25.08 39.14 25.08 39.14 28.75 36.06 28.75 36.06 25.08 34.47 25.08 34.47 28.75 31.2 28.75 31.2 25.08 29.61 25.08 29.61 28.75 25.12 28.75 25.12 37.73 70 37.73 70 28.75 65.21 28.75"/></svg>