<svg id="Layer_1" data-name="Layer 1" xmlns="http://www.w3.org/2000/svg" viewBox="0 0 1397 585"><defs><style>.cls-1{fill:#01b09f;opacity:0.16;}</style></defs><title>featuresBkgrd</title><path class="cls-1" d="M0,25s101-63,163,8c45.27,51.84,132,126,202,150S453,87,527,80c39.93-3.78,106,21,138,10S731-1,800,12s61,127,123,133S1087,37,1196,43s201,92,201,92V576s-28-75.19-71-76c-53-1-64,101-175.5,82.5-83.08-13.78-97-174-160.5-185S915,468,836,479c-48.69,6.78-87.5-8.5-136.5-9.5S575,562,461,567c-126,5.53-163-99-245-69s-89,81-158,81C10,579-.5,419.5-.5,419.5Z"/></svg>