<svg id="Layer_1" data-name="Layer 1" xmlns="http://www.w3.org/2000/svg" viewBox="0 0 95 95"><defs><style>.cls-1{fill:#a8009c;}.cls-2{fill:#fff;}</style></defs><title>graphFeature</title><circle class="cls-1" cx="47.5" cy="47.5" r="47.5"/><path class="cls-2" d="M34,34.85A18.21,18.21,0,0,1,46.23,29V24.18a23,23,0,0,0-16,7.83Z"/><path class="cls-2" d="M34.08,35.53l-4.64-3.45.36-.41a23.34,23.34,0,0,1,16.4-8l.53,0v5.78l-.47,0a17.66,17.66,0,0,0-11.88,5.74Zm-3.16-3.6,3,2.25a18.65,18.65,0,0,1,11.77-5.69V24.72A22.31,22.31,0,0,0,30.92,31.93Z"/><path class="cls-2" d="M49.93,29.07A18.3,18.3,0,0,1,64.17,39.78l4.38-1.87A23.07,23.07,0,0,0,49.92,24.27Z"/><path class="cls-2" d="M63.91,40.44l-.2-.46A17.87,17.87,0,0,0,49.86,29.57l-.44-.06V23.71l.56.06A23.59,23.59,0,0,1,69,37.71l.21.47ZM50.43,28.64a18.9,18.9,0,0,1,14,10.48l3.46-1.47A22.58,22.58,0,0,0,50.43,24.84Z"/><path class="cls-2" d="M65.32,43.31a18.23,18.23,0,0,1-9.35,20l1.8,4.43a23,23,0,0,0,12-26.32Z"/><path class="cls-2" d="M57.51,68.43l-2.18-5.36.4-.21a17.73,17.73,0,0,0,9.09-19.44L64.74,43l5.37-2.29.15.57A23.53,23.53,0,0,1,58,68.19Zm-.9-4.9L58,67A22.52,22.52,0,0,0,69.42,42.12l-3.52,1.5a18.74,18.74,0,0,1-9.29,19.92Z"/><path class="cls-2" d="M52.54,64.69A18.24,18.24,0,0,1,31.8,37.82L28,35A23,23,0,0,0,54.34,69.13Z"/><path class="cls-2" d="M47.48,70.68a23.51,23.51,0,0,1-19.95-36l.29-.46,4.65,3.45-.23.39A17.74,17.74,0,0,0,52.4,64.2l.44-.13L55,69.45l-.52.16A23.46,23.46,0,0,1,47.48,70.68Zm-19.37-35A22.51,22.51,0,0,0,53.66,68.8l-1.42-3.5A18.75,18.75,0,0,1,31.14,38Z"/></svg>