<svg id="Layer_1" data-name="Layer 1" xmlns="http://www.w3.org/2000/svg" viewBox="0 0 192 195.27"><defs><style>.cls-1{fill:#01b09f;}.cls-2{fill:none;}</style></defs><title>bills icon</title><path class="cls-1" d="M111.36,79.67C107.29,75.93,103.78,74,99,74c-5.43,0-8.37,2.15-8.37,7.24,0,10.75,29.87,9.84,29.87,31.45,0,10.86-6,19.23-17.65,21.72v11.77h-11V134.88c-6.68-.79-14.59-3.73-19.91-8.6l7.24-11.2c5.77,4.3,10.75,6.56,16.18,6.56,6.33,0,9.16-2.6,9.16-7.81,0-11.65-29.87-11.43-29.87-31.79,0-11.09,6.56-18.78,17.2-20.93V49.46h11V60.89c7.24,1,12.45,4.64,16.86,9.28Z"/><polygon class="cls-2" points="162.94 58.22 162.94 205.13 30.94 205.13 30.94 58.09 38.66 62.57 58.12 51.26 77.58 62.57 97.04 51.26 116.52 62.57 135.98 51.26 155.44 62.57 162.94 58.22"/><path class="cls-1" d="M162.94,16.26l-7.51,4.36L136,9.3,116.52,20.61,97,9.3,77.58,20.61,58.12,9.3,38.65,20.61,30.73,16l-9.15-5.32-.08.13V183.54H172.37V10.79Zm0,157.85h-132v-147l7.71,4.49L58.12,20.23,77.58,31.55,97,20.23l19.48,11.31L136,20.23l19.46,11.31,7.51-4.36Z"/></svg>