<svg id="Layer_1" data-name="Layer 1" xmlns="http://www.w3.org/2000/svg" viewBox="0 0 192 195.27"><defs><style>.cls-1{fill:#01b09f;}</style></defs><title>calendar icon</title><path class="cls-1" d="M15.86,72.13v105.6H176.14V72.13ZM34.19,85.57h34v34h-34Zm34,78.19h-34v-34h34Zm45.88,0h-34v-34h34Zm0-44.15h-34v-34h34Zm44.73,44.15h-34v-34h34Zm0-44.15h-34v-34h34Z"/><polygon class="cls-1" points="159.32 34.57 159.32 21.5 153.66 21.5 153.66 34.57 141.47 34.57 141.47 21.5 135.81 21.5 135.81 34.57 124.63 34.57 124.63 21.5 118.98 21.5 118.98 34.57 107.51 34.57 107.51 21.5 101.86 21.5 101.86 34.57 90.24 34.57 90.24 21.5 84.59 21.5 84.59 34.57 72.25 34.57 72.25 21.5 66.59 21.5 66.59 34.57 55.62 34.57 55.62 21.5 49.97 21.5 49.97 34.57 38.34 34.57 38.34 21.5 32.68 21.5 32.68 34.57 16.72 34.57 16.72 66.49 176.35 66.49 176.35 34.57 159.32 34.57"/></svg>