<svg id="Layer_1" data-name="Layer 1" xmlns="http://www.w3.org/2000/svg" viewBox="0 0 192 195.27"><defs><style>.cls-1{fill:#01b09f;}</style></defs><title>settings icon</title><path class="cls-1" d="M165.93,155.12l17.75-30.75-23.36-13.49A62.18,62.18,0,0,0,160,82.14l23.35-13.48L165.61,37.92,142,51.55a62.46,62.46,0,0,0-24.79-14.23v-27H81.69V37.29a62.46,62.46,0,0,0-25.1,14.46l-23-13.27L15.86,69.23,38.7,82.42a62.18,62.18,0,0,0,0,29.52l-22.52,13,17.75,30.75,22.65-13.08a62.44,62.44,0,0,0,25.76,14.65v26h35.5v-26.4a62.51,62.51,0,0,0,25.12-15ZM99.39,129.18a32,32,0,1,1,32-32A32,32,0,0,1,99.39,129.18Z"/></svg>