<svg id="Layer_1" data-name="Layer 1" xmlns="http://www.w3.org/2000/svg" viewBox="0 0 192 195.27"><defs><style>.cls-1{fill:#01b09f;}</style></defs><title>Summary icon</title><path class="cls-1" d="M45.78,50.79a67.9,67.9,0,0,1,45.54-22l0-17.8A85.65,85.65,0,0,0,31.48,40.17Z"/><path class="cls-1" d="M46,53.32,28.71,40.47l1.35-1.54A87,87,0,0,1,91.19,9.11l2-.11,0,21.55-1.76.12A65.84,65.84,0,0,0,47.18,52.06ZM34.26,39.89l11.29,8.38A69.54,69.54,0,0,1,89.44,27.05l0-14A83.18,83.18,0,0,0,34.26,39.89Z"/><path class="cls-1" d="M105.13,29.24a68.22,68.22,0,0,1,53.09,39.91l16.34-7A86,86,0,0,0,105.1,11.34Z"/><path class="cls-1" d="M157.25,71.62l-.75-1.7a66.63,66.63,0,0,0-51.61-38.81l-1.63-.22,0-21.65,2.09.22a87.94,87.94,0,0,1,71,52l.77,1.75ZM107,27.62A70.47,70.47,0,0,1,159.17,66.7L172,61.22A84.18,84.18,0,0,0,107,13.47Z"/><path class="cls-1" d="M162.52,82.33a68,68,0,0,1-34.86,74.54l6.7,16.52A85.83,85.83,0,0,0,179.1,75.27Z"/><path class="cls-1" d="M133.38,176l-8.11-20,1.51-.8a66.1,66.1,0,0,0,33.9-72.47l-.33-1.52,20-8.53.55,2.13a87.72,87.72,0,0,1-45.72,100.28ZM130,157.72l5.29,13A84,84,0,0,0,177.8,77.88l-13.12,5.59A69.85,69.85,0,0,1,130,157.72Z"/><path class="cls-1" d="M114.85,162A68,68,0,0,1,37.55,61.87L23.24,51.25a85.8,85.8,0,0,0,98.33,127.32Z"/><path class="cls-1" d="M96,184.35A87.65,87.65,0,0,1,21.64,50.25l1.08-1.73L40,61.38l-.87,1.46a66.12,66.12,0,0,0,75.17,97.38l1.63-.47,8.12,20-2,.61A87.46,87.46,0,0,1,96,184.35ZM23.77,54A83.92,83.92,0,0,0,119,177.36l-5.3-13.06A69.9,69.9,0,0,1,35.07,62.38Z"/></svg>